<?xml version="1.0" encoding="utf-8"?>
<svg width="1000" height="200" viewBox="-24.27 0 288.853 83.106" version="1.1" id="svg5" xmlns="http://www.w3.org/2000/svg" xmlns:bx="https://boxy-svg.com" preserveAspectRatio="none"><defs id="defs2"><bx:export><bx:file format="svg" path="jollytrack.svg"/></bx:export><filter id="drop-shadow-filter-0" bx:preset="drop-shadow 1 0 0 3 0.73 #0000008b" color-interpolation-filters="sRGB" x="-50%" y="-50%" width="200%" height="200%"><feGaussianBlur in="SourceAlpha" stdDeviation="3"/><feOffset dx="0" dy="0"/><feComponentTransfer result="offsetblur"><feFuncA id="spread-ctrl" type="linear" slope="1.46"/></feComponentTransfer><feFlood flood-color="#0000008b"/><feComposite in2="offsetblur" operator="in"/><feMerge><feMergeNode/><feMergeNode in="SourceGraphic"/></feMerge></filter><filter id="outline-filter-0" bx:preset="outline 1 1 #006208" color-interpolation-filters="sRGB" x="-50%" y="-50%" width="200%" height="200%"><feMorphology in="SourceAlpha" result="dilated" operator="dilate" radius="1"/><feFlood flood-color="#006208" result="flood"/><feComposite in="flood" in2="dilated" operator="in" result="outline"/><feMerge><feMergeNode in="outline"/><feMergeNode in="SourceGraphic"/></feMerge></filter><filter id="outline-filter-1" bx:preset="outline 1 4 #006a00" color-interpolation-filters="sRGB" x="-50%" y="-50%" width="200%" height="200%"><feMorphology in="SourceAlpha" result="dilated" operator="dilate" radius="4"/><feFlood flood-color="#006a00" result="flood"/><feComposite in="flood" in2="dilated" operator="in" result="outline"/><feMerge><feMergeNode in="outline"/><feMergeNode in="SourceGraphic"/></feMerge></filter><filter id="drop-shadow-filter-1" bx:preset="drop-shadow 1 -1 1 0 0.5 rgba(0,0,0,0.3)" color-interpolation-filters="sRGB" x="-50%" y="-50%" width="200%" height="200%"><feGaussianBlur in="SourceAlpha" stdDeviation="0"/><feOffset dx="-1" dy="1"/><feComponentTransfer result="offsetblur"><feFuncA id="spread-ctrl" type="linear" slope="1"/></feComponentTransfer><feFlood flood-color="rgba(0,0,0,0.3)"/><feComposite in2="offsetblur" operator="in"/><feMerge><feMergeNode/><feMergeNode in="SourceGraphic"/></feMerge></filter><filter id="outline-filter-2" bx:preset="outline 1 1 #123000" color-interpolation-filters="sRGB" x="-50%" y="-50%" width="200%" height="200%"><feMorphology in="SourceAlpha" result="dilated" operator="dilate" radius="1"/><feFlood flood-color="#123000" result="flood"/><feComposite in="flood" in2="dilated" operator="in" result="outline"/><feMerge><feMergeNode in="outline"/><feMergeNode in="SourceGraphic"/></feMerge></filter></defs><g id="g5128" transform="matrix(1, 0, -0.191465, 1, -4.156469, 4.439572)"><title>main</title><rect style="font-size:59.2131px;font-family:Impact;-inkscape-font-specification:Impact;fill:#112052;fill-opacity:1;stroke:none;stroke-width:0.37098;stroke-dasharray:none;stroke-opacity:1" id="rect19982-1" width="72.351089" height="0.95230049" x="143.26874" y="3.2728517" transform="matrix(1,0,0.18804934,0.98215958,0,0)"/><rect style="font-size:59.2131px;font-family:Impact;-inkscape-font-specification:Impact;fill:#112052;fill-opacity:1;stroke:none;stroke-width:0.372483;stroke-dasharray:none;stroke-opacity:1" id="rect19982-1-3" width="72.938583" height="0.95230049" x="142.6154" y="7.2492614" transform="matrix(1,0,0.18804934,0.98215958,0,0)"/><g id="g872" transform="matrix(0.07480357,0,0.01424868,0.07441914,212.37131,-1.9847472)" style="fill: rgb(179, 193, 255); fill-opacity: 1; filter: url(&quot;#outline-filter-1&quot;);"><rect y="122.35137" x="24.190477" height="12.567708" width="24.072357" id="rect827" style="opacity: 1; fill-opacity: 1; stroke: none; stroke-width: 10; stroke-linecap: square; stroke-linejoin: bevel; stroke-miterlimit: 4; stroke-dasharray: none; stroke-opacity: 1; paint-order: stroke; fill: rgb(255, 0, 0);"/><rect y="118.76457" x="128.67104" height="12.567708" width="24.072357" id="rect827-6" style="opacity: 1; fill-opacity: 1; stroke: none; stroke-width: 10; stroke-linecap: square; stroke-linejoin: bevel; stroke-miterlimit: 4; stroke-dasharray: none; stroke-opacity: 1; paint-order: stroke; fill: rgb(255, 0, 0);"/><path id="path844" d="m 20.938897,104.1713 h -2.296848 v 2.40751 h 2.3052 v 6.76526 h 5.220108 v 7.36547 h 6.468523 v -7.27604 h 2.303293 v 8.97693 h 2.385976 v -8.98874 h 10.370722 l 11.221167,11.62277 49.514882,2.83481 4.74832,-14.62295 26.46809,-4.04657 v 9.68852 h 2.23838 v -10.02261 l 2.05135,-0.30861 v 5.23261 h 6.45116 v -7.43801 l 1.52845,-0.55124 2.3e-4,-6.841554 -1.52845,-0.55124 v -7.438007 h -6.45116 v 5.232607 l -2.05135,-0.30861 V 85.880999 h -2.23838 v 9.688517 l -26.46809,-4.04657 -4.74832,-14.622944 -49.514867,2.834807 -11.22117,11.622767 H 37.325392 v -8.988737 h -2.385976 v 8.976927 H 32.636123 V 84.069729 H 26.1676 v 7.365467 h -5.220108 v 6.76526 h -2.3052 v 2.407514 h 2.296848 z" style="fill-opacity: 1; stroke: none; stroke-width: 0.264583px; stroke-linecap: butt; stroke-linejoin: miter; stroke-opacity: 1; fill: rgb(255, 0, 0);"/><rect transform="scale(1,-1)" y="-82.427887" x="24.155148" height="12.567708" width="24.072357" id="rect827-9" style="opacity: 1; fill-opacity: 1; stroke: none; stroke-width: 10; stroke-linecap: square; stroke-linejoin: bevel; stroke-miterlimit: 4; stroke-dasharray: none; stroke-opacity: 1; paint-order: stroke; fill: rgb(255, 0, 0);"/><rect transform="scale(1,-1)" y="-86.014694" x="128.63574" height="12.567708" width="24.072357" id="rect827-6-8" style="opacity: 1; fill-opacity: 1; stroke: none; stroke-width: 10; stroke-linecap: square; stroke-linejoin: bevel; stroke-miterlimit: 4; stroke-dasharray: none; stroke-opacity: 1; paint-order: stroke; fill: rgb(255, 0, 0);"/></g><path id="path4993" style="font-family: &quot;FORCED SQUARE&quot;; fill-opacity: 1; stroke-width: 1.40413; stroke-dasharray: none; stroke-opacity: 1; filter: url(&quot;#outline-filter-0&quot;) url(&quot;#drop-shadow-filter-0&quot;); stroke: rgb(0, 0, 0); paint-order: fill; fill: rgb(214, 9, 9);" d="M 113.184 3.894 L 113.333 11.02 L 125.551 11.02 L 126.132 38.725 L 132.477 38.725 L 131.897 11.02 L 144.114 11.02 L 143.965 3.894 L 113.184 3.894 Z M 144.114 11.02 L 144.695 38.725 L 151.041 38.725 L 150.604 17.88 L 157.365 17.88 L 157.509 24.739 L 163.855 24.739 L 163.568 11.02 L 144.114 11.02 Z M 200.215 10.754 L 200.799 38.658 L 225.709 38.658 L 225.56 31.533 L 206.996 31.533 L 206.709 17.813 L 225.273 17.813 L 225.124 10.754 L 200.215 10.754 Z M 169.141 10.953 L 169.278 17.48 L 187.842 17.48 L 187.937 22.009 L 169.373 22.009 L 169.722 38.658 L 194.631 38.658 L 194.051 10.953 L 169.141 10.953 Z M 175.838 27.67 L 188.055 27.67 L 188.156 32.465 L 175.938 32.465 L 175.838 27.67 Z M 231.169 2.029 L 231.938 38.725 L 238.047 38.725 L 237.831 28.402 L 241.567 28.402 L 250.917 38.725 L 256.61 38.725 L 256.538 35.262 L 247.125 24.739 L 256.103 14.483 L 256.03 11.02 L 250.574 11.02 L 241.419 21.343 L 237.682 21.343 L 237.278 2.029 L 231.169 2.029 Z M 72.041 2.717 L 72.809 39.346 L 78.917 39.346 L 78.15 2.717 L 72.041 2.717 Z M 28.314 11.641 L 28.895 39.346 L 53.804 39.346 L 53.224 11.641 L 28.314 11.641 Z M 84.327 11.641 L 84.907 39.346 L 100.921 39.346 L 94.603 46.339 L 94.696 50.801 L 99.5 50.801 L 109.58 39.346 L 109 11.641 L 102.891 11.641 L 103.327 32.487 L 90.873 32.487 L 90.436 11.641 L 84.327 11.641 Z M 34.804 18.501 L 47.021 18.501 L 47.315 32.487 L 35.097 32.487 L 34.804 18.501 Z M 22.629 2.7119999999999997 L 23.485 39.341 L 3.524 39.341 L 3.219 25.808 L 8.979 25.787 L 9.254 33.54 L 17.1 33.447 L 16.52 2.7119999999999997 L 22.629 2.7119999999999997 Z M 59.539 2.6959999999999997 L 60.307 39.325 L 66.415 39.325 L 65.648 2.6959999999999997 L 59.539 2.6959999999999997 Z"/></g><path style="fill: rgba(216, 216, 216, 0); stroke: rgb(0, 186, 255); filter: url(&quot;#outline-filter-2&quot;) url(&quot;#drop-shadow-filter-1&quot;);" d="M 102.687 61.259 C 102.687 61.963 102.646 62.668 102.762 63.366 C 103.366 66.993 102.525 61.407 102.988 64.645 C 103.586 68.831 103.445 63.701 104.192 61.711 C 104.342 61.31 104.73 59.853 105.471 60.131 C 108.216 61.16 109.856 67.086 111.415 69.536"/><path style="fill: rgba(216, 216, 216, 0); stroke: rgb(0, 186, 255); filter: url(&quot;#outline-filter-2&quot;) url(&quot;#drop-shadow-filter-1&quot;);" d="M 119.09 68.633 C 117.565 68.061 115.606 66.887 115.102 65.247 C 114.508 63.317 116.37 60.605 118.488 60.958 C 121.167 61.405 122.381 66.094 120.519 67.956 C 119.882 68.593 118.828 68.106 118.111 68.106"/><path style="fill: rgba(216, 216, 216, 0); stroke: rgb(0, 186, 255); filter: url(&quot;#outline-filter-2&quot;) url(&quot;#drop-shadow-filter-1&quot;);" d="M 124.658 59.228 C 124.872 59.604 125.762 61.155 125.937 61.485 C 126.308 62.186 126.694 62.891 127.065 63.592 C 127.38 64.186 127.517 65.699 127.968 66.15 C 128.152 66.334 128.717 64.804 128.721 64.796 C 128.967 64.233 130.572 60.698 131.58 61.033 C 133.406 61.642 132.482 67.613 134.966 65.247 C 135.287 64.941 135.597 64.62 135.869 64.269 C 136.583 63.346 136.924 62.653 137.449 61.635 C 138.103 60.369 138.778 59.052 139.405 57.798"/><path style="fill: rgba(216, 216, 216, 0); stroke: rgb(0, 186, 255); filter: url(&quot;#outline-filter-2&quot;) url(&quot;#drop-shadow-filter-1&quot;);" d="M 152.874 58.249 C 152.99 59.003 153.064 59.752 153.175 60.507 C 153.446 62.35 153.344 61.176 153.551 62.764 C 153.679 63.748 153.565 63.228 153.701 64.043 C 154.293 67.596 154.011 61.458 156.335 62.388 C 157.451 62.834 158.129 64.362 158.517 65.398 C 158.569 65.536 158.956 66.752 159.119 66.752 C 159.814 66.752 159.777 65.522 160.022 64.871 C 160.427 63.791 161.718 57.572 163.257 57.572"/><path style="fill: rgba(216, 216, 216, 0); stroke: rgb(0, 186, 255); filter: url(&quot;#outline-filter-2&quot;) url(&quot;#drop-shadow-filter-1&quot;);" d="M 168.75 60.507 C 168.622 61.66 168.633 67.396 167.922 68.106"/><path style="fill: rgba(216, 216, 216, 0); stroke: rgb(0, 186, 255); filter: url(&quot;#outline-filter-2&quot;) url(&quot;#drop-shadow-filter-1&quot;);" d="M 169.653 54.864 C 169.522 55.45 169.051 56.593 169.051 57.046"/><path style="fill: rgba(216, 216, 216, 0); stroke: rgb(0, 186, 255); filter: url(&quot;#outline-filter-2&quot;) url(&quot;#drop-shadow-filter-1&quot;);" d="M 178.832 58.249 C 177.91 60.555 176.5 65.311 176.5 67.58"/><path style="fill: rgba(216, 216, 216, 0); stroke: rgb(0, 186, 255); filter: url(&quot;#outline-filter-2&quot;) url(&quot;#drop-shadow-filter-1&quot;);" d="M 172.136 60.657 C 175.042 61.021 177.935 62.012 180.864 62.012"/><path style="fill: rgba(216, 216, 216, 0); stroke: rgb(0, 186, 255); filter: url(&quot;#outline-filter-2&quot;) url(&quot;#drop-shadow-filter-1&quot;);" d="M 184.325 55.691 C 184.101 58.38 184.415 61.115 184.325 63.817 C 184.292 64.812 184.253 65.703 184.024 66.677 C 183.902 67.194 183.497 68.713 183.497 68.182 C 183.497 66.84 185.669 64.291 187.184 64.796 C 188.115 65.106 188.78 67.789 188.238 68.332"/><path style="fill: rgba(216, 216, 216, 0); stroke: rgb(0, 186, 255); filter: url(&quot;#outline-filter-2&quot;) url(&quot;#drop-shadow-filter-1&quot;);" d="M 205.017 57.422 C 204.491 61.626 202.082 65.844 202.082 70.063"/><path style="fill: rgba(216, 216, 216, 0); stroke: rgb(0, 186, 255); filter: url(&quot;#outline-filter-2&quot;) url(&quot;#drop-shadow-filter-1&quot;);" d="M 200.578 57.196 C 203.409 56.842 206.443 57.798 209.23 57.798"/><path style="fill: rgba(216, 216, 216, 0); stroke: rgb(0, 186, 255); filter: url(&quot;#outline-filter-2&quot;) url(&quot;#drop-shadow-filter-1&quot;);" d="M 199.449 69.461 C 201.224 70.222 203.617 70.364 205.544 70.364"/><path style="fill: rgba(216, 216, 216, 0); stroke: rgb(0, 186, 255); filter: url(&quot;#outline-filter-2&quot;) url(&quot;#drop-shadow-filter-1&quot;);" d="M 215.551 69.762 C 211.781 69.762 207.608 62.831 212.692 61.56 C 213.631 61.325 214.939 62.235 215.852 62.463"/><path style="fill: rgba(216, 216, 216, 0); stroke: rgb(0, 186, 255); filter: url(&quot;#outline-filter-2&quot;) url(&quot;#drop-shadow-filter-1&quot;);" d="M 220.667 70.439 C 220.667 67.524 220.704 64.826 221.044 61.936 C 221.123 61.264 221.236 59.339 222.022 59.077 C 223.368 58.628 224.988 60.605 225.784 61.184"/><path style="fill: rgba(216, 216, 216, 0); stroke: rgb(0, 186, 255); filter: url(&quot;#outline-filter-2&quot;) url(&quot;#drop-shadow-filter-1&quot;);" d="M 221.946 63.968 C 222.697 64.182 223.238 64.352 223.903 64.796"/><path style="fill: rgba(216, 216, 216, 0); stroke: rgb(0, 186, 255); filter: url(&quot;#outline-filter-2&quot;) url(&quot;#drop-shadow-filter-1&quot;);" d="M 221.871 69.837 C 222.648 70.614 224.858 70.88 225.934 71.342"/><path style="fill: rgba(216, 216, 216, 0); stroke: rgb(0, 186, 255); filter: url(&quot;#outline-filter-2&quot;) url(&quot;#drop-shadow-filter-1&quot;);" d="M 230.599 57.497 C 229.772 59.428 229.32 64.982 229.32 67.128"/><path style="fill: rgba(216, 216, 216, 0); stroke: rgb(0, 186, 255); filter: url(&quot;#outline-filter-2&quot;) url(&quot;#drop-shadow-filter-1&quot;);" d="M 230.825 72.621 C 230.508 71.775 230.148 71.045 230.148 70.138"/></svg>